<mxfile host="app.diagrams.net" modified="2023-10-20T06:52:05.640Z" agent="Mozilla/5.0 (Windows NT 10.0; Win64; x64) AppleWebKit/537.36 (KHTML, like Gecko) Chrome/118.0.0.0 Safari/537.36" version="22.0.5" etag="8Nol0xuZUWTsxa_zST61" type="github">
  <diagram name="Страница — 1" id="7XJXOi6I81zIxPAY55vA">
    <mxGraphModel>
      <root>
        <mxCell id="0" />
        <mxCell id="1" parent="0" />
      </root>
    </mxGraphModel>
  </diagram>
</mxfile>
